# AST/ASF file generated using VICON BodyLanguage
# -----------------------------------------------
:version 1.10
:name VICON
:units
  mass 1.0
  length 0.45
  angle deg
:documentation
   .ast/.asf automatically generated from VICON data using
   VICON BodyBuilder and BodyLanguage model FoxedUp or BRILLIANT.MOD
:root
   order TX TY TZ RX RY RZ
   axis XYZ
   position 0 0 0  
   orientation 0 0 0 
:bonedata
  begin
     id 1 
     name lhipjoint
     direction 0.570549 -0.739093 0.358072 
     length 2.41801 
     axis 0 0 0  XYZ
  end
  begin
     id 2 
     name lfemur
     direction 0.34202 -0.939693 0  
     length 7.44434  
     axis 0 0 20  XYZ
    dof rx ry rz
    limits (-160.0 20.0)
           (-70.0 70.0)
           (-60.0 70.0)
  end
  begin
     id 3 
     name ltibia
     direction 0.34202 -0.939693 0   
     length 7.60047   
     axis 0 0 20   XYZ
    dof rx
    limits (-10.0 170.0)
  end
  begin
     id 4 
     name lfoot
     direction 0.0909041 -0.249757 0.964032   
     length 2.03437   
     axis -90 7.62852e-016 20   XYZ
    dof rx rz
    limits (-45.0 90.0)
           (-70.0 20.0)
  end
  begin
     id 5 
     name ltoes
     direction 1.53547e-011 -4.2174e-011 1   
     length 1.02054   
     axis -90 7.62852e-016 20   XYZ
    dof rx
    limits (-90.0 20.0)
  end
  begin
     id 6 
     name rhipjoint
     direction -0.558096 -0.746754 0.361784   
     length 2.3932  
     axis 0 0 0  XYZ 
  end
  begin
     id 7 
     name rfemur
     direction -0.34202 -0.939693 0   
     length 7.3886   
     axis 0 0 -20   XYZ
    dof rx ry rz
    limits (-160.0 20.0)
           (-70.0 70.0)
           (-70.0 60.0)
  end
  begin
     id 8 
     name rtibia
     direction -0.34202 -0.939693 0   
     length 7.4839   
     axis 0 0 -20   XYZ
    dof rx
    limits (-10.0 170.0)
 end
 begin
     id 9 
     name rfoot
     direction -0.114619 -0.314914 0.942174   
     length 2.25127  
     axis -90 -7.62852e-016 -20   XYZ
    dof rx rz
    limits (-45.0 90.0)
           (-20.0 70.0)
  end
  begin
     id 10 
     name rtoes
     direction -1.53518e-011 -4.21881e-011 1   
     length 1.11821   
     axis -90 -7.62852e-016 -20   XYZ
    dof rx
    limits (-90.0 20.0)
  end
  begin
     id 11 
     name lowerback
     direction -0.00902269 0.996426 -0.0839821   
     length 2.25052   
     axis 0 0 0   XYZ
    dof rx ry rz
    limits (-20.0 45.0)
           (-30.0 30.0)
           (-30.0 30.0)
  end
  begin
     id 12 
     name upperback
     direction 0.0370973 0.999169 -0.0168941   
     length 2.24876   
     axis 0 0 0   XYZ
    dof rx ry rz
    limits (-20.0 45.0)
           (-30.0 30.0)
           (-30.0 30.0)
  end
  begin
     id 13 
     name thorax
     direction 0.0402726 0.998931 0.0227027   
     length 2.26408   
     axis 0 0 0   XYZ
    dof rx ry rz
    limits (-20.0 45.0)
           (-30.0 30.0)
           (-30.0 30.0)
  end
  begin
     id 14 
     name lowerneck
     direction -0.0733697 0.98508 0.155675   
     length 1.58204   
     axis 0 0 0   XYZ
    dof rx ry rz
    limits (-20.0 45.0)
           (-30.0 30.0)
           (-30.0 30.0)
  end
  begin
     id 15 
     name upperneck
     direction 0.0426554 0.993501 -0.105526   
     length 1.61222   
     axis 0 0 0   XYZ
    dof rx ry rz
    limits (-20.0 45.0)
           (-30.0 30.0)
           (-30.0 30.0)
  end
  begin
     id 16
     name head
     direction 0.020792 0.998384 -0.0528868  
     length 1.61527  
     axis 0 0 0   XYZ
    dof rx ry rz
    limits (-20.0 45.0)
           (-30.0 30.0)
           (-30.0 30.0)
  end
  begin
     id 17 
     name lclavicle
     direction 0.967109 0.155462 -0.201325  
     length 3.59357  
     axis 0 0 0   XYZ
    dof ry rz
    limits (-20.0 10.0)
           (0.0 20.0)
  end
  begin
     id 18 
     name lhumerus
     direction 1 -4.48968e-011 2.38195e-027   
     length 5.38154   
     axis 180 -30 -90   XYZ
    dof rx ry rz
    limits (-60.0 90.0)
           (-90.0 90.0)
           (-90.0 90.0)
  end
  begin
     id 19
     name lradius
     direction 1 -4.48961e-011 4.85371e-027   
     length 3.33312   
     axis 180 -30 -90   XYZ
    dof rx
    limits (-10.0 170.0)
  end
  begin
     id 20
     name lwrist
     direction 1 -4.48961e-011 4.76515e-027   
     length 1.66656   
     axis -3.27502e-015 90 90   XYZ
    dof ry
    limits (-180.0 0.0)
 end
  begin
     id 21 
     name lhand
     direction 1 -4.48951e-011 9.53074e-027   
     length 0.710789   
     axis -6.08098e-015 90 90   XYZ
    dof rx rz
    limits (-90.0 90.0)
           (-45.0 45.0)
  end
  begin
     id 22 
     name lfingers
     direction 1 -4.48953e-011 1.90613e-026   
     length 0.573057   
     axis -1.21619e-014 90 90   XYZ
    dof rx
    limits (0.0 90.0)
  end
  begin
     id 23
     name lthumb
     direction 0.707107 -6.34973e-011 0.707107   
     length 0.822798   
     axis -90 45 -9.86923e-015   XYZ
    dof rx rz
    limits (-45.0 45.0)
           (-45.0 45.0)
  end
  begin
     id 24 
     name rclavicle
     direction -0.9585 0.265289 -0.104398   
     length 3.42039  
     axis 0 0 0   XYZ 
    dof ry rz
    limits (-10.0 20.0)
           (-20.0 0.0)
  end
  begin
     id 25 
     name rhumerus
     direction -1 -4.48977e-011 2.21478e-027  
     length 5.16954   
     axis 180 30 90   XYZ
    dof rx ry rz
    limits (-90.0 60.0)
           (-90.0 90.0)
           (-90.0 90.0)
  end
  begin
     id 26 
     name rradius
     direction -1 -4.48967e-011 5.63677e-027   
     length 3.38287   
     axis 180 30 90   XYZ
    dof rx
    limits (-10.0 170.0)
  end
  begin
     id 27 
     name rwrist
     direction -1 -4.48967e-011 4.76501e-027   
     length 1.69144   
     axis -3.27502e-015 -90 -90   XYZ
    dof ry
    limits (-180.0 0.0)
  end
  begin
     id 28
     name rhand
     direction -1 -4.48902e-011 9.53292e-027   
     length 0.817967   
     axis -6.08098e-015 -90 -90   XYZ
    dof rx rz
    limits (-90.0 90.0)
           (-45.0 45.0)
  end
  begin
     id 29
     name rfingers
     direction -1 -4.49012e-011 1.90561e-026   
     length 0.659466   
     axis -1.21619e-014 -90 -90   XYZ
    dof rx
    limits (0.0 90.0)
  end
  begin
     id 30
     name rthumb
     direction -0.707107 -6.34944e-011 0.707107   
     length 0.946865   
     axis -90 -45 9.86923e-015   XYZ
    dof rx rz
    limits (-45.0 45.0)
           (-45.0 45.0)
  end
:hierarchy
  begin
    root lhipjoint rhipjoint lowerback
    lhipjoint lfemur
    lfemur ltibia
    ltibia lfoot
    lfoot ltoes
    rhipjoint rfemur
    rfemur rtibia
    rtibia rfoot
    rfoot rtoes
    lowerback upperback
    upperback thorax
    thorax lowerneck lclavicle rclavicle
    lowerneck upperneck
    upperneck head
    lclavicle lhumerus
    lhumerus lradius
    lradius lwrist
    lwrist lhand lthumb
    lhand lfingers
    rclavicle rhumerus
    rhumerus rradius
    rradius rwrist
    rwrist rhand rthumb
    rhand rfingers
  end

#!OML:ASF F:\twosubjects\two\wednesday\Session 1\Justin1.ASF
:FULLY-SPECIFIED
:DEGREES
51
root 7.33261 17.5158 10.0374 -3.68746 -43.0444 -358.54
lowerback 6.35805 0.448413 -5.05153
upperback -0.701242 0.402396 5.27728
thorax -4.39261 0.38284 8.4099
lowerneck -13.0809 3.86346 -8.64384
upperneck 28.6012 8.60772 -3.84129
head 11.3632 2.35186 1.16871
rclavicle 3.79182e-014 -9.54166e-015
rhumerus -31.669 9.6887 -76.2543
rradius 37.4972
rwrist -19.7437
rhand -20.2153 18.0481
rfingers 7.12502
rthumb 6.13193 -11.8432
lclavicle 3.79182e-014 -9.54166e-015
lhumerus -32.9205 20.3112 63.1445
lradius 34.5394
lwrist -5.4322
lhand -5.24528 40.4184
lfingers 7.12502
lthumb 20.5577 69.3499
rfemur -9.71546 18.9009 15.4378
rtibia 35.406
rfoot -21.9078 8.32427
rtoes -13.892
lfemur -19.3245 -14.4879 -14.7879
ltibia 32.468
lfoot -3.76048 -38.6993
ltoes -0.54564
52
root 7.30381 17.4946 9.98901 -2.89886 -41.2651 -359.545
lowerback 6.75889 0.221128 -4.79968
upperback -1.02828 0.128602 5.72624
thorax -4.91722 0.275638 8.79715
lowerneck -12.8321 4.14927 -8.8712
upperneck 28.7036 9.10337 -4.00456
head 11.3465 2.53186 1.2027
rclavicle -8.39865e-015 3.02153e-014
rhumerus -31.2882 9.58449 -75.7089
rradius 37.0024
rwrist -18.7389
rhand -19.6111 18.2776
rfingers 7.12502
rthumb 6.71526 -11.5959
lclavicle -8.39865e-015 3.02153e-014
lhumerus -34.1069 21.6453 62.331
lradius 35.2479
lwrist -5.75715
lhand -4.83359 40.6521
lfingers 7.12502
lthumb 20.9533 69.5404
rfemur -9.4463 18.4131 16.2363
rtibia 35.1538
rfoot -21.6402 8.70076
rtoes -14.4565
lfemur -20.1137 -14.8882 -13.8127
ltibia 32.7618
lfoot -3.23837 -39.7986
ltoes -2.84818
53
root 7.27174 17.4956 9.94402 -1.90419 -39.8854 -360.776
lowerback 6.8784 0.127496 -4.35207
upperback -1.27623 0.0624721 6.22365
thorax -5.23717 0.255866 9.09939
lowerneck -12.3564 4.41299 -9.02338
upperneck 28.5012 9.50213 -4.21984
head 11.1746 2.69898 1.18131
rclavicle 7.54885e-014 -7.95139e-015
rhumerus -30.9282 9.78357 -75.2584
rradius 36.6476
rwrist -18.1878
rhand -19.3453 18.6941
rfingers 7.12502
rthumb 6.97185 -11.1711
lclavicle 7.54885e-014 -7.95139e-015
lhumerus -35.031 22.6412 61.6832
lradius 35.7551
lwrist -5.75802
lhand -5.19003 40.6307
lfingers 7.12502
lthumb 20.6108 69.5565
rfemur -9.3993 17.8557 17.268
rtibia 35.1133
rfoot -21.298 9.19462
rtoes -14.0048
lfemur -20.9327 -14.997 -12.6186
ltibia 33.1537
lfoot -2.83572 -40.7073
ltoes -4.7943
54
root 7.23917 17.5109 9.9177 -1.41981 -38.4898 -361.239
lowerback 6.75068 0.0303842 -4.26043
upperback -1.44461 -0.0437664 6.46641
thorax -5.32437 0.212402 9.32892
lowerneck -11.9081 4.73053 -9.02263
upperneck 28.2695 9.958 -4.49548
head 11.0072 2.90441 1.11986
rclavicle -5.20816e-014 2.38542e-014
rhumerus -30.5462 10.1451 -74.9347
rradius 36.333
rwrist -18.0088
rhand -19.1881 19.0005
rfingers 7.12502
rthumb 7.12357 -10.8596
lclavicle -5.20816e-014 2.38542e-014
lhumerus -35.8727 23.3142 61.1159
lradius 36.2106
lwrist -5.23285
lhand -5.23135 40.6495
lfingers 7.12502
lthumb 20.5711 69.5795
rfemur -9.20675 16.8528 17.6039
rtibia 34.9649
rfoot -20.9361 10.2706
rtoes -11.2204
lfemur -21.5413 -15.1926 -12.1623
ltibia 33.3273
lfoot -3.53183 -41.4942
ltoes -7.55816
55
root 7.22346 17.4823 9.7824 0.372341 -37.3545 -363.153
lowerback 7.5183 0.110917 -3.68115
upperback -1.97648 0.159697 7.17003
thorax -6.376 0.364397 9.7892
lowerneck -11.8511 5.0069 -8.99606
upperneck 28.4583 10.4588 -4.8045
head 11.0859 3.08678 1.06665
rclavicle -2.27608e-014 4.29375e-014
rhumerus -30.2678 10.7418 -74.5659
rradius 36.0759
rwrist -17.9892
rhand -19.2254 19.1782
rfingers 7.12502
rthumb 7.0876 -10.6831
lclavicle -2.27608e-014 4.29375e-014
lhumerus -36.9804 23.9133 60.6393
lradius 36.9416
lwrist -4.42759
lhand -4.63237 40.8972
lfingers 7.12502
lthumb 21.1466 69.764
rfemur -10.0488 17.1057 19.412
rtibia 34.8273
rfoot -20.32 9.54477
rtoes -9.68538
lfemur -23.2107 -14.6489 -9.7531
ltibia 33.3212
lfoot -0.654802 -42.3081
ltoes -5.03414
56
root 7.18635 17.4803 9.7424 -0.215595 -35.3986 -362.481
lowerback 7.96892 -0.124039 -4.64325
upperback -2.07036 -0.249776 7.20197
thorax -6.65814 0.219806 10.4764
lowerneck -11.9708 5.30546 -8.6791
upperneck 28.6254 10.9907 -5.24521
head 11.2169 3.29353 0.931319
rclavicle -5.10877e-014 2.38542e-014
rhumerus -29.7895 11.407 -74.2585
rradius 35.7724
rwrist -17.8643
rhand -19.1542 19.2654
rfingers 7.12502
rthumb 7.15633 -10.5936
lclavicle -5.10877e-014 2.38542e-014
lhumerus -38.0884 24.7334 59.9807
lradius 37.7026
lwrist -3.74284
lhand -4.96877 40.8071
lfingers 7.12502
lthumb 20.8234 69.7097
rfemur -9.50565 15.5634 19.0798
rtibia 34.4443
rfoot -20.5188 9.14979
rtoes -9.22593
lfemur -23.4542 -15.3294 -10.2443
ltibia 33.1182
lfoot 5.12153 -42.255
ltoes 4.06977
57
root 7.15501 17.4841 9.71696 -0.829252 -33.558 -361.775
lowerback 8.34382 -0.284302 -5.37153
upperback -2.11965 -0.550602 7.10967
thorax -6.86099 0.113947 10.8685
lowerneck -11.9657 5.54832 -8.48751
upperneck 28.6096 11.3869 -5.51688
head 11.2372 3.46574 0.853346
rclavicle -1.60022e-014 -3.33958e-014
rhumerus -29.3681 11.7264 -73.9444
rradius 35.5262
rwrist -17.5249
rhand -19.0257 19.2256
rfingers 7.12502
rthumb 7.28037 -10.6292
lclavicle -1.60022e-014 -3.33958e-014
lhumerus -38.9711 24.928 59.4718
lradius 38.4331
lwrist -2.7215
lhand -6.09419 40.4766
lfingers 7.12502
lthumb 19.7418 69.4941
rfemur -8.74588 13.4615 18.6361
rtibia 33.9553
rfoot -20.7364 8.69535
rtoes -9.88313
lfemur -23.553 -16.0546 -10.9131
ltibia 32.993
lfoot 8.2796 -42.0312
ltoes 8.38709
58
root 7.11723 17.4823 9.65617 -0.527084 -32.0621 -362.568
lowerback 8.94125 -0.302852 -5.01606
upperback -2.22588 -0.52883 7.36365
thorax -7.32703 0.143754 10.9747
lowerneck -12.1128 5.68673 -8.22624
upperneck 28.7097 11.709 -5.97267
head 11.3572 3.57297 0.69768
rclavicle 1.01977e-013 -7.95139e-014
rhumerus -29.2134 11.9559 -73.5835
rradius 35.4846
rwrist -17.3732
rhand -18.9772 19.197
rfingers 7.12502
rthumb 7.32712 -10.6561
lclavicle 1.01977e-013 -7.95139e-014
lhumerus -39.46 24.7728 59.2559
lradius 38.74
lwrist -1.59339
lhand -6.41396 40.6063
lfingers 7.12502
lthumb 19.4344 69.6551
rfemur -8.10631 11.8313 19.6895
rtibia 33.1057
rfoot -20.421 7.96065
rtoes -9.60401
lfemur -23.8058 -16.0605 -10.1178
ltibia 32.7968
lfoot 8.49389 -42.5136
ltoes 6.62585
59
root 7.0846 17.4806 9.59717 0.0642387 -31.2099 -363.901
lowerback 9.43956 -0.173382 -4.19239
upperback -2.23362 -0.236689 7.76186
thorax -7.69073 0.27795 10.9154
lowerneck -12.3605 5.85404 -7.87676
upperneck 28.7892 12.0981 -6.53841
head 11.5074 3.70283 0.501385
rclavicle -2.05742e-014 1.90833e-014
rhumerus -28.918 12.3303 -73.2052
rradius 35.4051
rwrist -17.3937
rhand -18.7548 19.214
rfingers 7.12502
rthumb 7.54183 -10.6315
lclavicle -2.05742e-014 1.90833e-014
lhumerus -40.145 25.4737 58.8383
lradius 38.9932
lwrist -1.39843
lhand -6.44043 40.4787
lfingers 7.12502
lthumb 19.4089 69.5301
rfemur -7.54712 11.198 21.3201
rtibia 32.1338
rfoot -19.9783 7.30676
rtoes -8.61751
lfemur -24.061 -15.4867 -8.73084
ltibia 32.7839
lfoot 6.25697 -43.0444
ltoes 2.40089
60
root 7.04784 17.4869 9.55127 0.482194 -29.5675 -364.785
lowerback 9.72077 -0.396377 -3.6485
upperback -2.24121 -0.454099 8.01805
thorax -7.81495 0.156428 10.9302
lowerneck -12.5056 6.15764 -7.74732
upperneck 28.5503 12.5357 -6.62475
head 11.4565 3.92411 0.511298
rclavicle -7.14134e-014 1.11319e-014
rhumerus -28.143 12.6605 -72.9614
rradius 34.8919
rwrist -16.8357
rhand -18.3876 19.1762
rfingers 7.12502
rthumb 7.89624 -10.6563
lclavicle -7.14134e-014 1.11319e-014
lhumerus -41.6503 26.3252 57.984
lradius 40.0738
lwrist -1.58184
lhand -6.70774 39.8251
lfingers 7.12502
lthumb 19.1519 68.9021
rfemur -6.84359 10.1819 22.4697
rtibia 31.0951
rfoot -19.7241 6.56943
rtoes -7.16136
lfemur -24.5751 -15.6247 -7.78293
ltibia 32.8483
lfoot 3.0741 -43.0916
ltoes -3.28024
61
root 7.01705 17.5045 9.50775 0.805102 -27.6739 -365.628
lowerback 10.1481 -0.647136 -2.87477
upperback -2.33855 -0.671588 8.20304
thorax -8.12545 0.0327162 10.7397
lowerneck -12.1295 6.42877 -7.9605
upperneck 27.9742 12.793 -6.39529
head 11.1213 4.11628 0.636139
rclavicle 6.90777e-014 -6.83819e-014
rhumerus -27.6464 12.7747 -72.714
rradius 34.4934
rwrist -16.2222
rhand -18.1971 18.978
rfingers 7.12502
rthumb 8.08016 -10.8475
lclavicle 6.90777e-014 -6.83819e-014
lhumerus -42.9912 26.1921 57.4158
lradius 41.0464
lwrist -1.24538
lhand -6.64882 39.5711
lfingers 7.12502
lthumb 19.2085 68.6425
rfemur -6.15883 9.20009 23.5719
rtibia 30.1837
rfoot -19.4722 5.70007
rtoes -5.86841
lfemur -25.0486 -15.8162 -6.96966
ltibia 32.843
lfoot -4.38902 -42.688
ltoes -18.3743
62
root 6.98913 17.5222 9.45482 1.36103 -26.2151 -366.76
lowerback 10.6333 -0.682502 -1.87181
upperback -2.57143 -0.537284 8.52226
thorax -8.69658 0.0876146 10.5261
lowerneck -11.5571 6.61401 -8.00901
upperneck 27.5383 13.0078 -6.61201
head 10.858 4.24373 0.563148
rclavicle 7.55382e-015 3.97569e-014
rhumerus -27.5418 12.9011 -72.3001
rradius 34.3334
rwrist -16.056
rhand -18.0484 18.9641
rfingers 7.12502
rthumb 8.22359 -10.8558
lclavicle 7.55382e-015 3.97569e-014
lhumerus -43.9741 25.615 57.211
lradius 41.4783
lwrist -0.902173
lhand -6.24318 39.599
lfingers 7.12502
lthumb 19.5986 68.6312
rfemur -5.90227 8.6264 24.9132
rtibia 29.5996
rfoot -19.1331 4.92206
rtoes -6.18203
lfemur -25.597 -16.2986 -5.43426
ltibia 32.6214
lfoot -3.95043 -41.4073
ltoes -12.2748
63
root 6.94957 17.5437 9.38862 1.84388 -25.6141 -367.01
lowerback 10.8087 -0.46241 -2.08627
upperback -2.75777 -0.241607 8.65402
thorax -9.06618 0.273168 10.781
lowerneck -11.5638 6.83497 -7.68821
upperneck 27.4376 13.3575 -6.96773
head 10.8734 4.40429 0.431973
rclavicle -2.55438e-014 -9.54166e-015
rhumerus -27.1221 13.1056 -71.9447
rradius 34.0038
rwrist -15.6999
rhand -17.5691 19.0837
rfingers 7.12502
rthumb 8.6862 -10.7176
lclavicle -2.55438e-014 -9.54166e-015
lhumerus -44.7431 25.3002 56.8146
lradius 41.4814
lwrist -0.911082
lhand -5.91958 39.7686
lfingers 7.12502
lthumb 19.9097 68.7688
rfemur -6.3322 9.10864 25.495
rtibia 29.3289
rfoot -18.6341 3.82065
rtoes -7.37518
lfemur -26.2408 -15.9848 -4.60128
ltibia 32.3364
lfoot -5.36833 -39.0314
ltoes -7.34912
